# xmcd
#
# Track frame offsets: 
#        150
#        14405
#        33587
#        46297
#        61257
#        76365
#        89997
#        102057
#        115827
#        128457
#        142815
#        157365
#        172172
#        182982
#
# Disc length: 2631 seconds
#
# Revision: 4
# Processed by: cddbd v1.5.2PL0 Copyright (c) Steve Scherf et al.
# Submitted via: ExactAudioCopy v0.95b2
#
DISCID=c00a450e
DTITLE=Ella Fitzgerald and Louis Armstrong and many others - Vocal Duets
DTITLE=With Ella and Louis [CD 3 of 3)
DYEAR=2000
DGENRE=Jazz
TTITLE0=Ella Fitzgerald and The Ink Spots - Into Each Life Some Rain Mus
TTITLE0=t Fall
TTITLE1=Louis Armstrong and Jack Teargarden - Back O'Town Blues
TTITLE2=Louis Armstrong and The Mills Brothers - Cherry
TTITLE3=Ella Fitzgerald and The Four Keys - He's My Guy
TTITLE4=Louis Armstrong and Billie Holliday - My Sweet Hunk O' Trash
TTITLE5=Louis Armstrong and The Mills Brothers- The Flat Foot Floogie
TTITLE6=Ella Fitzgerald and The Delta Rhythm Boys - It's A Pity To Say G
TTITLE6=oodnight
TTITLE7=Louis Armstrong and Jack Teargarden - Jack Armstyrong Blues
TTITLE8=Louis Armstrong and The Mills Brothers - My Darling Nellie Gray
TTITLE9=Louis Armstrong and The Polynesians - On A Coconut Island
TTITLE10=Ella Fitzgerald and The Mills Brothers - Dedicated To You
TTITLE11=Louis Armstrong and Jack Teargarden - Please Stop Playing The R
TTITLE11=ose Blues, Boy
TTITLE12=Louis Armstrong and The Mills Brothers - Old Folks At Home (Way
TTITLE12=Down Upon The Swanee River)
TTITLE13=Ella Fitzgerald and Louis Armstrong - The Frim Fram Sauce
EXTD=YEAR: 2000
EXTT0=
EXTT1=
EXTT2=
EXTT3=
EXTT4=
EXTT5=
EXTT6=
EXTT7=
EXTT8=
EXTT9=
EXTT10=
EXTT11=
EXTT12=
EXTT13=
PLAYORDER=
